
# 1.详述视频中的帧类型

在视频编码中，常见的帧类型有以下几种：

### I帧（关键帧）
- **特点**：是一种自包含的帧，它不依赖其他帧进行解码，可以独立完整地表示一幅图像。它包含了图像的所有信息，就像一张完整的照片。
- **作用**：作为视频序列的起始帧和随机访问点，提供了视频的基础图像信息。在视频播放时，播放器可以直接从I帧开始解码和显示图像，无需参考其他帧。同时，它也是视频编辑和压缩的重要参考点，例如在视频剪辑中，通常会在I帧处进行切割，以保证视频的完整性和稳定性。

### P帧（前向预测帧）
- **特点**：通过参考前面的I帧或P帧来进行编码。它只包含了与前面参考帧之间的差异信息，即运动补偿信息。例如，如果一个场景中的物体在相邻帧之间有轻微的移动，P帧就会记录这些物体的运动矢量和差异信息，而不是重新编码整个图像。
- **作用**：利用视频中的时间相关性，减少数据冗余，提高压缩效率。在解码时，需要先解码出前面的参考帧，然后根据P帧中的运动补偿信息来生成当前帧的图像。

### B帧（双向预测帧）
- **特点**：不仅参考前面的I帧或P帧，还参考后面的帧来进行编码。它通过双向运动估计和补偿，能够更准确地描述视频中的运动信息，进一步提高压缩效率。B帧记录的是与前后参考帧之间的差异和运动矢量。
- **作用**：可以根据前后帧的信息更精确地预测当前帧的内容，从而在保证图像质量的前提下，实现更高的压缩比。但由于需要参考前后帧，B帧的解码延迟相对较高，在实时性要求较高的视频应用中，可能会限制B帧的使用。


<----------------------------------------------------------------------->
# 2. FFmpeg是如何实现判断关键帧的?
FFmpeg判断关键帧主要是基于视频编码标准中对帧类型的定义和标识。

在常见的视频编码格式如H.264、H.265中，帧分为I帧（关键帧）、P帧（前向预测帧）和B帧（双向预测帧）等类型。FFmpeg通过解析视频流的编码数据，识别其中帧的类型标记来确定是否为关键帧。例如，在H.264编码中，NALU（网络抽象层单元）类型为5的表示I帧。FFmpeg在处理视频流时，会检查每个NALU的类型，当遇到类型为5的NALU时，就判定该帧为关键帧并进行相应的提取操作。

此外，FFmpeg还可以通过一些参数和选项来进一步调整关键帧的提取策略。例如，`-vf "select=eq(pict_type\,I)"`这个参数表示只选择图像类型为I的帧，即关键帧进行提取。通过这种方式，FFmpeg能够准确地从视频中提取出关键帧图像。


<----------------------------------------------------------------------->
<----------------------------------------------------------------------->
# 3. 如何从mp4提取关键帧图像
从MP4中提取关键帧图像有以下几种方法：

### 使用FFmpeg
FFmpeg是一款强大的开源视频处理工具。在命令行中输入以下命令：
```sh
ffmpeg -i input.mp4 -vf "select=eq(pict_type\,I)" -vsync vfr output_%03d.jpg
```

该命令会从名为`input.mp4`的文件中提取所有关键帧，并保存为`output_001.jpg`、`output_002.jpg`等格式的图片。你可以根据需要修改输出文件名的格式。

### 使用Python的OpenCV库
OpenCV是一个用于计算机视觉任务的库。以下是一个简单的示例代码：
```python
import cv2

video_path = 'path/to/your/video.mp4'
cap = cv2.VideoCapture(video_path)

while True:
    ret, frame = cap.read()
    if not ret:
        break
    # 在这里可以添加判断是否为关键帧的逻辑，例如通过图像特征分析等
    cv2.imshow('Frame', frame)
    if cv2.waitKey(1) & 0xFF == ord('q'):
        break

cap.release()
cv2.destroyAllWindows()
```
不过，**上述代码中没有直接判断关键帧的代码**，需要根据具体需求添加关键帧判断逻辑，比如基于图像的颜色直方图、SIFT特征等进行分析。

### 使用在线工具Kive.ai
打开[Kive.ai](https://www.kive.ai/tools/extract-frames-from-video)网站，上传MP4文件或粘贴视频链接，点击“Start Import”按钮，自动分析并提取关键帧，提取完成后可浏览和搜索关键帧图像。

<----------------------------------------------------------------------->
<----------------------------------------------------------------------->
# 4. ffmpeg 提取关键帧及其每个关键帧的对应时间点

在视频处理中，关键帧（I 帧）是视频序列中的重要组成部分，它包含了完整的图像信息，可独立解码。使用 `ffmpeg` 可以提取视频中的关键帧及其对应的时间点，下面为你详细介绍操作方法。

## 4.1 提取关键帧及其时间点的原理
`ffmpeg` 能够通过分析视频流的编码信息找出关键帧，同时利用 `show_frames` 过滤器输出每个帧的详细信息，包含帧类型（如 I 帧）和时间戳。

## 4.2 实现步骤与示例代码
你可以借助以下 `ffmpeg` 命令提取关键帧及其对应的时间点：
```bash
ffmpeg -skip_frame nokey -i input.mp4 -vsync vfr -q:v 2 -f image2 -update 1 frame.jpg -vf "showinfo" -an -f null -
# or 
ffmpeg -skip_frame nokey -i ./input.mp4 -vsync vfr -q:v 2 -vf "showinfo"  -an   output_%03d.jpg 2>time_point.txt
```
下面对命令中的参数进行详细解释：
- `-skip_frame nokey`：该参数的作用是跳过非关键帧，仅处理关键帧。
- `-i input.mp4`：指定输入的视频文件，你需要把 `input.mp4` 替换成实际的视频文件名。
- `-vsync vfr`：设置视频同步模式为可变帧率（VFR），确保输出的帧与原始视频的帧率一致。
- `-q:v 2`：设置输出图像的质量，数值越小质量越高，这里 `2` 表示较高质量。
- `-f image2`：指定输出格式为图像序列。
- `-update 1`：每次只保存最新的一帧图像，这样可以避免生成大量图像文件。
- `frame.jpg`：指定输出的图像文件名。
- `-vf "showinfo"`：使用 `showinfo` 视频过滤器，它会在标准错误输出中打印每个帧的详细信息，包括帧类型和时间戳。
- `-an`：禁用音频流，仅处理视频。
- `-f null -`：指定输出格式为 `null`，也就是不生成实际的输出文件，只是将处理信息输出到标准错误。

## 4.2 解析输出结果
运行上述命令后，`ffmpeg` 会在标准错误输出中打印每个关键帧的详细信息，示例如下：
```plaintext
[Parsed_showinfo_0 @ 0x559dc87d7640] n:   0 pts:      0 pts_time:0       fmt:yuv420p sar:1/1 s:1920x1080 i:P iskey:1 type:I checksum:5F66F74A plane_checksum:[47E2F302 86356266 7671683C] mean:[108 128 128] stdev:[61.3 0.0 0.0]
```
从输出信息中可以提取出关键帧的相关信息：
- `n`：帧编号。
- `pts`：显示时间戳（Presentation Time Stamp），以时间基为单位。
- `pts_time`：显示时间戳对应的实际时间（秒）。
- `iskey:1`：表示该帧是关键帧。
- `type:I`：表示帧类型为 I 帧（关键帧）。

## 4.3 完整脚本示例
下面是一个完整的脚本示例，用于提取关键帧及其时间点，并将结果保存到文件中：
```bash
#!/bin/bash

# 输入视频文件
input_file="input.mp4"

# 输出图像文件
output_image="frame.jpg"

# 运行 ffmpeg 命令并将输出保存到文件
ffmpeg -skip_frame nokey -i "$input_file" -vsync vfr -q:v 2 -f image2 -update 1 "$output_image" -vf "showinfo" -an -f null - 2> keyframes_info.txt

# 提取关键帧的时间点
grep "iskey:1" keyframes_info.txt | awk '{print $4}' | cut -d ':' -f 2 > keyframes_timestamps.txt

echo "关键帧信息已保存到 keyframes_info.txt"
echo "关键帧时间点已保存到 keyframes_timestamps.txt"
```

将上述脚本保存为一个 `.sh` 文件，例如 `extract_keyframes.sh`，然后赋予其执行权限并运行：
```bash
chmod +x extract_keyframes.sh
./extract_keyframes.sh
```

运行脚本后，关键帧的详细信息会保存到 `keyframes_info.txt` 文件中，关键帧的时间点会保存到 `keyframes_timestamps.txt` 文件中。

<----------------------------------------------------------------------->
<----------------------------------------------------------------------->

# 5.ffmpeg 中 showinfo 过滤器输出的一帧信息

```plaintext
[Parsed_showinfo_0 @ 0x77fff4002cc0] n:6477 pts:3454400 pts_time:215.9   duration:    533 duration_time:0.0333125 fmt:yuv420p cl:left sar:0/1 s:768x480 i:P iskey:0 type:B checksum:59EE3182 plane_checksum:[1AE47433 6CDC9452 B18128EE] mean:[216 131 127] stdev:[44.4 10.7 3.4]
```

这是 `ffmpeg` 中 `showinfo` 过滤器输出的一帧信息，下面为你详细解释其中各项参数的含义：

## 5.1 基本信息
- `[Parsed_showinfo_0 @ 0x77fff4002cc0]`：这是过滤器实例的标识符，`Parsed_showinfo_0` 表示名为 `showinfo` 的过滤器的第一个实例，`0x77fff4002cc0` 是该实例在内存中的地址。

## 5.2帧编号与时间信息
- `n:6477`：`n` 代表帧编号，这里表示当前是视频中的第 6477 帧。
- `pts:3454400`：`pts` 即显示时间戳（Presentation Time Stamp），它以时间基为单位，用来指示该帧应该在何时显示。
- `pts_time:215.9`：`pts_time` 是 `pts` 对应的实际时间（以秒为单位），意味着这帧应该在视频开始后的 215.9 秒显示。
- `duration: 533`：`duration` 表示该帧的持续时长，以时间基为单位。
- `duration_time:0.0333125`：`duration_time` 是 `duration` 对应的实际时长（以秒为单位），说明这帧会显示 0.0333125 秒。

## 5.3视频格式信息
- `fmt:yuv420p`：`fmt` 表示视频帧的像素格式，`yuv420p` 是一种常见的 YUV 颜色编码格式，它在视频处理中广泛使用。
- `sar:0/1`：`sar` 是样本宽高比（Sample Aspect Ratio），这里 `0/1` 可能表示没有指定或者默认的宽高比。
- `s:768x480`：`s` 代表视频帧的尺寸，这里表示帧的宽度为 768 像素，高度为 480 像素。

## 5.4帧类型信息
- `i:P`：这里的 `i` 可能表示帧的类型指示，`P` 代表 P 帧（预测帧）。P 帧依赖于前面的 I 帧或 P 帧进行解码。
- `iskey:0`：`iskey` 用于标识该帧是否为关键帧，`0` 表示这不是关键帧。
- `type:B`：`type` 明确了帧的类型，`B` 代表 B 帧（双向预测帧）。B 帧依赖于前面和后面的帧进行解码。

## 5.5校验和与统计信息
- `checksum:59EE3182`：`checksum` 是整个帧数据的校验和，用于验证帧数据的完整性。
- `plane_checksum:[1AE47433 6CDC9452 B18128EE]`：`plane_checksum` 是每个颜色平面（Y、U、V）的校验和，用于分别验证每个颜色平面数据的完整性。
- `mean:[216 131 127]`：`mean` 是每个颜色平面的像素值平均值，分别对应 Y、U、V 平面。
- `stdev:[44.4 10.7 3.4]`：`stdev` 是每个颜色平面的像素值标准差，分别对应 Y、U、V 平面。标准差反映了像素值的离散程度。

从这行输出可知，该帧是一个 B 帧（双向预测帧），不是关键帧，会在视频开始后的 215.9 秒显示，持续 0.0333125 秒，尺寸为 768x480 像素，采用 `yuv420p` 像素格式。 

<----------------------------------------------------------------------->
<----------------------------------------------------------------------->
# 6.ffmpeg 提取关键帧并以 关键帧的对应时间点为文件名保存所有关键帧

你可以使用 `ffmpeg` 来提取视频中的关键帧，并将关键帧以其对应的时间点作为文件名进行保存。以下为你详细介绍实现步骤和具体的命令示例：

## 6.1 实现思路
> 1. **筛选关键帧**：借助 `ffmpeg` 的 `-skip_frame nokey` 参数，跳过非关键帧，仅处理关键帧。
> 2. **获取时间戳**：利用 `showinfo` 过滤器输出每个关键帧的详细信息，其中包含时间戳。
> 3. **重命名保存**：结合脚本处理输出信息，提取时间戳，将关键帧以时间戳作为文件名保存。

## 6.2 命令示例
下面是一个完整的示例，它会提取视频中的关键帧，并以时间戳为文件名保存这些关键帧：

```bash
#!/bin/bash

# 输入视频文件
input_file="input.mp4"

# 临时文件，用于存储帧信息
info_file="frames_info.txt"

# 提取关键帧并保存帧信息
ffmpeg -skip_frame nokey -i "$input_file" -vsync vfr -q:v 2 -vf "showinfo" -f null - 2> "$info_file"

# 逐行读取帧信息文件
while IFS= read -r line; do
    if [[ $line == *"iskey:1"* ]]; then
        # 提取时间戳
        timestamp=$(echo "$line" | grep -oP 'pts_time:\K[^ ]+')
        # 生成输出文件名
        output_file="${timestamp//./_}.jpg"
        # 提取关键帧并保存
        ffmpeg -ss "$timestamp" -i "$input_file" -vframes 1 -q:v 2 "$output_file"
    fi
done < "$info_file"

# 删除临时文件
rm "$info_file"

echo "关键帧已提取并保存，文件名以时间戳命名。"
```

## 6.3 代码解释
> 1. **输入文件与临时文件**：`input_file` 是输入的视频文件名，`info_file` 是用于存储帧信息的临时文件。
> 2. **提取关键帧信息**：第一个 `ffmpeg` 命令使用 `-skip_frame nokey` 跳过非关键帧，`-vf "showinfo"` 输出帧的详细信息，并将其保存到 `info_file` 中。
> 3. **逐行处理帧信息**：通过 `while` 循环逐行读取 `info_file`，使用 `grep` 筛选出关键帧信息，并提取时间戳。
> 4. **生成输出文件名**：将时间戳中的 `.` 替换为 `_`，避免文件名出现非法字符。
> 5. **提取关键帧并保存**：第二个 `ffmpeg` 命令使用 `-ss` 参数定位到关键帧的时间点，`-vframes 1` 只提取一帧，`-q:v 2` 设置输出图像的质量，最后将关键帧保存为 JPEG 文件。
> 6. **删除临时文件**：处理完所有关键帧后，删除临时文件 `info_file`。

## 6.4 使用方法
> 1. 将上述脚本保存为一个 `.sh` 文件，例如 `extract_keyframes.sh`。
> 2. 赋予脚本执行权限：
```bash
chmod +x extract_keyframes.sh
```
> 3. 运行脚本：
```bash
./extract_keyframes.sh
```

运行脚本后，视频中的关键帧将以其对应的时间点作为文件名保存为 JPEG 文件。 

<----------------------------------------------------------------------->
<----------------------------------------------------------------------->
# 7.you-get 下载的视频的画质如何选择

使用`you - get`下载视频时，可通过以下步骤选择画质：
1. 首先，打开命令行窗口。如果是Windows系统，可按下`Win + R`键，输入`cmd`后回车；如果是Mac系统，则打开终端。
2. 输入`you-get - i <视频链接>`，回车后会列出该视频可下载的画质和格式等信息。例如，可能会显示类似“quality: 高清 720P”“quality: 清晰 480P”“quality: 流畅 360P”等内容，同时还会有对应的格式代码，如“dash - flv360”“flv480”等。
3. 根据列出的信息，选择想要的画质对应的格式代码，输入`you - get --format=<格式代码> <视频链接>`进行下载。例如，要下载MP4格式、流畅画质（假设流畅画质对应的格式代码为`dash - flv360`），则输入`you - get --format=dash - flv360 <视频链接>`。

另外，有的视频网站可能会用itag来标识不同画质，这时可以通过`--itag`参数来指定画质下载，如`you - get --itag=242 <链接>`。具体的itag值与画质的对应关系可以通过`you - get - i <视频链接>`查看得到。